:version 1.10
:name ASF
:units
  mass 1
  length 1
  angle deg
:documentation
  ASF file generated by Kaydara
:root
  axis xyz
  order  tx ty tz rx ry rz
  position 0 0 0
  orientation 0 0 0
:bonedata
  begin
    id 1
    name RightUpLegDummy
    direction -0.718183 -0.695806 0.00816078
    length 4.904
    axis 0 0 0 xyz
  end
  begin
    id 2
    name RightUpLeg
    direction -0.0736652 -0.994202 0.0783343
    length 17.4976
    axis -2.72909 -3.00389 -4.00133 xyz
    dof rx ry rz
  end
  begin
    id 3
    name RightLeg
    direction -0.0389037 -0.994596 -0.0962598
    length 16.5821
    axis 3.95836 -18.5909 -4.46993 xyz
    dof rx ry rz
  end
  begin
    id 4
    name RightFoot
    direction -0.311643 -0.412678 0.855906
    length 3.77069
    axis -1.99483 -18.8351 -3.27644 xyz
    dof rx ry rz
  end
  begin
    id 5
    name RightToes
    direction -0.317852 0.0389852 0.947339
    length 3.85082
    axis -2.00228 -18.1713 -3.25211 xyz
    dof rx ry rz
  end
  begin
    id 6
    name SpineDummy
    direction 8.3039e-015 1 4.44677e-016
    length 4.6813
    axis 0 0 0 xyz
  end
  begin
    id 7
    name Spine
    direction -0.000262373 0.999988 0.00493267
    length 10.1015
    axis -0.00246081 0.00062579 0.0150362 xyz
    dof rx ry rz
  end
  begin
    id 8
    name Spine1
    direction 0 0 0
    length 0
    axis -0.00349562 0.000650293 0.0196666 xyz
    dof rx ry rz
  end
  begin
    id 9
    name HEadDummy
    direction -0.000343232 0.999999 0.00123745
    length 3.43865
    axis -0.00349562 0.000650293 0.0196666 xyz
  end
  begin
    id 10
    name HEad
    direction -0.0461221 0.980933 0.188796
    length 5.12695
    axis -0.00351404 -7.04812 0.0199272 xyz
    dof rx ry rz
  end
  begin
    id 11
    name LeftShoulder1Dummy
    direction 0.998904 -0.0399089 -0.0244534
    length 3.5433
    axis -0.00349562 0.000650293 0.0196666 xyz
  end
  begin
    id 12
    name LeftShoulder1
    direction 0.99951 1.64443e-005 0.0312999
    length 4.05031
    axis -0.00349562 0.000650293 0.0196666 xyz
    dof rx ry rz
  end
  begin
    id 13
    name LeftArm
    direction 0.984791 0.0515299 0.165927
    length 12.9126
    axis -64.823 -10.7743 5.20463 xyz
    dof rx ry rz
  end
  begin
    id 14
    name LeftForeArm
    direction 0.984968 0.0534808 0.16425
    length 10.8596
    axis -30.0462 -7.70601 1.87451 xyz
    dof rx ry rz
  end
  begin
    id 15
    name LeftHand
    direction 0.975871 0.0289682 0.216418
    length 6.62295
    axis -20.1348 -6.98077 1.86072 xyz
    dof rx ry rz
  end
  begin
    id 16
    name RightShoulderDummy
    direction -0.998877 -0.0405946 -0.0244307
    length 3.5433
    axis -0.00349562 0.000650293 0.0196666 xyz
  end
  begin
    id 17
    name RightShoulder
    direction -0.998933 -0.0249743 -0.0388558
    length 4.05031
    axis -0.0205316 -4.02113 1.41395 xyz
    dof rx ry rz
  end
  begin
    id 18
    name RightArm
    direction -0.997559 0.068664 0.0127103
    length 12.9638
    axis -67.3882 1.84188 -6.15987 xyz
    dof rx ry rz
  end
  begin
    id 19
    name RightForeArm
    direction -0.991508 0.0912848 0.0926241
    length 10.8312
    axis -22.1975 3.41087 -4.28711 xyz
    dof rx ry rz
  end
  begin
    id 20
    name RightHand
    direction -0.989262 0.0600788 0.133232
    length 6.57864
    axis -12.2911 2.17515 -4.39675 xyz
    dof rx ry rz
  end
  begin
    id 21
    name LeftUpLegDummy
    direction 0.718183 -0.695806 0.00816078
    length 4.904
    axis 0 0 0 xyz
  end
  begin
    id 22
    name LeftUpLeg
    direction 0.0831398 -0.99469 0.0606531
    length 17.4976
    axis -1.71016 2.29552 4.63832 xyz
    dof rx ry rz
  end
  begin
    id 23
    name LeftLeg
    direction 0.0498442 -0.991778 -0.117862
    length 16.5821
    axis 5.13757 15.5727 5.13348 xyz
    dof rx ry rz
  end
  begin
    id 24
    name LeftFoot
    direction 0.269026 -0.433896 0.85986
    length 3.77069
    axis -0.576502 15.6961 4.10267 xyz
    dof rx ry rz
  end
  begin
    id 25
    name LeftToes
    direction 0.277311 0.0251143 0.960452
    length 3.85048
    axis -0.576502 15.6961 4.10267 xyz
    dof rx ry rz
  end
:hierarchy
  begin
    root RightUpLegDummy SpineDummy LeftUpLegDummy
    RightUpLegDummy RightUpLeg
    RightUpLeg RightLeg
    RightLeg RightFoot
    RightFoot RightToes
    SpineDummy Spine
    Spine Spine1
    Spine1 HEadDummy LeftShoulder1Dummy RightShoulderDummy
    HEadDummy HEad
    LeftShoulder1Dummy LeftShoulder1
    LeftShoulder1 LeftArm
    LeftArm LeftForeArm
    LeftForeArm LeftHand
    RightShoulderDummy RightShoulder
    RightShoulder RightArm
    RightArm RightForeArm
    RightForeArm RightHand
    LeftUpLegDummy LeftUpLeg
    LeftUpLeg LeftLeg
    LeftLeg LeftFoot
    LeftFoot LeftToes
  end

:SAMPLES-PER-SECOND 30
:FULLY-SPECIFIED
:DEGREES
46
root  6.58209 40.0397 -85.2547 -0.992517 -10.3749 0.535898
RightUpLeg  -1.04126 -0.417148 1.69788
RightLeg  2.82831 -2.97848 0.652841
RightFoot  -1.77419 0.173704 -1.78922
RightToes  5.82077e-011 -3.18055e-015 -2.98177e-016
Spine  -4.1441 1.45641 -0.372169
Spine1  13.1989 0.9882 2.36231
HEad  -14.0308 3.69309 -1.35124
LeftShoulder1  -3.88251e-019 9.70628e-020 -3.87848e-018
LeftArm  -21.3479 51.6814 -69.6006
LeftForeArm  6.17555 -11.1414 -4.95545
LeftHand  -0.560051 -0.829238 11.2958
RightShoulder  8.13269 10.8843 37.7397
RightArm  8.51223 -39.5651 20.3778
RightForeArm  13.4353 15.2716 -4.79982
RightHand  -0.846212 1.11204 -14.825
LeftUpLeg  -1.0298 -3.26762 -4.1615
LeftLeg  3.98643 16.8667 3.31851
LeftFoot  -1.87559 -0.0149955 0.0784481
LeftToes  1.39127e-010 -3.60802e-011 -7.31315e-011
47
root  6.63677 40.0428 -85.2301 -0.929348 -10.4464 0.506985
RightUpLeg  -1.08888 -0.398399 1.65583
RightLeg  2.79465 -2.91437 0.634262
RightFoot  -1.70882 0.169372 -1.74475
RightToes  5.82077e-011 -3.18055e-015 -2.98177e-016
Spine  -4.1425 1.47371 -0.641682
Spine1  13.2058 0.917726 2.69184
HEad  -13.9949 3.74138 -1.346
LeftShoulder1  -3.88251e-019 9.70628e-020 -3.87848e-018
LeftArm  -21.1316 51.7053 -69.6405
LeftForeArm  6.01658 -11.2547 -5.07019
LeftHand  -0.549962 -0.638015 11.4574
RightShoulder  8.10266 10.8694 37.6268
RightArm  8.61782 -39.608 20.4241
RightForeArm  13.3657 15.4125 -4.9434
RightHand  -0.871475 1.3927 -14.6548
LeftUpLeg  -1.04016 -3.34167 -4.25252
LeftLeg  3.94576 17.0318 3.34996
LeftFoot  -1.92206 -0.0194291 0.125034
LeftToes  1.39127e-010 -3.60802e-011 -7.31315e-011
48
root  6.71222 40.0403 -85.201 -0.85689 -10.5206 0.56604
RightUpLeg  -1.26329 -0.49685 1.46664
RightLeg  2.96529 -2.66423 0.570746
RightFoot  -1.71599 0.157032 -1.61808
RightToes  5.82077e-011 -3.18055e-015 -2.98177e-016
Spine  -4.20922 1.4978 -0.797396
Spine1  13.2374 0.915716 2.82319
HEad  -13.9377 3.67838 -1.27312
LeftShoulder1  -3.88251e-019 9.70628e-020 -3.87848e-018
LeftArm  -21.1042 51.7419 -69.8204
LeftForeArm  6.39493 -11.4643 -5.04986
LeftHand  -0.572313 -0.84402 11.5127
RightShoulder  8.16388 10.8982 37.8603
RightArm  8.99755 -39.4528 20.0936
RightForeArm  12.9433 15.5635 -5.01221
RightHand  -0.93504 1.80565 -14.8379
LeftUpLeg  -1.07695 -3.43783 -4.43653
LeftLeg  3.93157 17.2226 3.31557
LeftFoot  -2.00887 -0.0288317 0.223832
LeftToes  1.39127e-010 -3.60802e-011 -7.31315e-011
49
root  6.80038 40.0343 -85.1689 -0.872236 -10.5679 0.633223
RightUpLeg  -1.38466 -0.657736 1.23226
RightLeg  3.24271 -2.4546 0.487251
RightFoot  -1.80899 0.13348 -1.37639
RightToes  5.82077e-011 -3.18055e-015 -2.98177e-016
Spine  -4.12862 1.44342 -0.674711
Spine1  13.2286 0.927315 2.59022
HEad  -13.9357 3.47727 -1.23557
LeftShoulder1  -3.88251e-019 9.70628e-020 -3.87848e-018
LeftArm  -21.266 51.7857 -70.0204
LeftForeArm  6.67547 -11.6317 -4.99112
LeftHand  -0.597103 -1.2056 11.3223
RightShoulder  8.23405 10.9299 38.1298
RightArm  9.19498 -39.3102 19.9354
RightForeArm  12.5271 15.607 -4.98076
RightHand  -1.01731 2.02102 -15.6778
LeftUpLeg  -1.06018 -3.56147 -4.6607
LeftLeg  4.0103 17.405 3.33673
LeftFoot  -2.14587 -0.0355584 0.294515
LeftToes  1.39127e-010 -3.60802e-011 -7.31315e-011
50
root  6.89088 40.0265 -85.1414 -0.942112 -10.5883 0.614795
RightUpLeg  -1.39605 -0.75024 1.09364
RightLeg  3.4362 -2.3981 0.420841
RightFoot  -1.90968 0.112774 -1.16395
RightToes  5.82077e-011 -3.18055e-015 -2.98177e-016
Spine  -3.74266 1.32601 -0.373336
Spine1  12.9377 0.912722 2.16949
HEad  -13.8639 3.27205 -1.25298
LeftShoulder1  -3.88251e-019 9.70628e-020 -3.87848e-018
LeftArm  -21.3583 51.9497 -70.1978
LeftForeArm  6.17907 -11.8517 -5.05771
LeftHand  -0.593287 -1.21819 11.2306
RightShoulder  8.23717 10.9315 38.141
RightArm  9.01334 -39.4185 20.1399
RightForeArm  12.4649 15.5559 -4.95691
RightHand  -1.10014 2.06703 -16.8351
LeftUpLeg  -1.05674 -3.62866 -4.80584
LeftLeg  4.2532 17.496 3.46373
LeftFoot  -2.40422 -0.0350205 0.288863
LeftToes  1.39127e-010 -3.60802e-011 -7.31315e-011
51
root  6.98701 40.0147 -85.1247 -0.992781 -10.7148 0.559647
RightUpLeg  -1.45404 -0.729208 1.02684
RightLeg  3.60088 -2.22024 0.301336
RightFoot  -1.95679 0.0997336 -1.03017
RightToes  5.82077e-011 -3.18055e-015 -2.98177e-016
Spine  -3.05047 1.29641 -0.217598
Spine1  12.2103 0.925682 1.98592
HEad  -13.4149 3.23837 -1.27367
LeftShoulder1  -3.88251e-019 9.70628e-020 -3.87848e-018
LeftArm  -21.4284 52.2541 -70.5215
LeftForeArm  5.63009 -12.1848 -5.15678
LeftHand  -0.576519 -0.928102 11.4347
RightShoulder  8.17684 10.9094 37.8981
RightArm  8.64379 -39.7274 20.3751
RightForeArm  12.7428 15.453 -4.97398
RightHand  -1.18148 2.20473 -17.7451
LeftUpLeg  -1.13537 -3.55292 -4.86376
LeftLeg  4.65201 17.5456 3.57821
LeftFoot  -2.85629 -0.0297244 0.233213
LeftToes  1.39127e-010 -3.60802e-011 -7.31315e-011
52
root  7.10511 39.9905 -85.1242 -1.12325 -10.9367 0.599953
RightUpLeg  -1.72499 -0.766479 0.851364
RightLeg  4.22422 -1.82604 -0.0219044
RightFoot  -2.16193 0.0682184 -0.707766
RightToes  5.82077e-011 -3.18055e-015 -2.98177e-016
Spine  -2.05451 1.38595 -0.207092
Spine1  11.2458 1.03361 1.98326
HEad  -12.523 3.27417 -1.21632
LeftShoulder1  -3.88251e-019 9.70628e-020 -3.87848e-018
LeftArm  -21.6558 52.4057 -71.0165
LeftForeArm  6.20839 -12.3884 -5.10996
LeftHand  -0.560177 -0.713555 11.5181
RightShoulder  8.15576 10.9058 37.8035
RightArm  8.50442 -39.8681 20.2555
RightForeArm  12.9519 15.3516 -4.93665
RightHand  -1.24558 2.4073 -18.2234
LeftUpLeg  -1.25434 -3.44912 -5.02156
LeftLeg  5.28991 17.6681 3.74693
LeftFoot  -3.5433 -0.0178461 0.0952249
LeftToes  1.39127e-010 -3.60802e-011 -7.31315e-011
53
root  7.25685 39.9364 -85.1466 -1.47212 -11.0313 0.779088
RightUpLeg  -2.31412 -1.10317 0.420985
RightLeg  5.85129 -1.41261 -0.568315
RightFoot  -2.89502 0.00610621 -0.0389461
RightToes  5.82077e-011 -3.18055e-015 -2.98177e-016
Spine  -0.654231 1.38202 0.0133116
Spine1  10.2783 1.14872 1.64676
HEad  -11.5286 3.23549 -1.08784
LeftShoulder1  -3.88251e-019 9.70628e-020 -3.87848e-018
LeftArm  -22.0084 52.1792 -71.4917
LeftForeArm  7.46407 -12.2403 -5.00323
LeftHand  -0.530515 -0.524079 11.2787
RightShoulder  8.1995 10.9269 37.9688
RightArm  8.56505 -39.7254 20.065
RightForeArm  13.0062 15.2645 -4.81307
RightHand  -1.27675 2.48666 -18.4891
LeftUpLeg  -1.44907 -3.47177 -5.44965
LeftLeg  6.43111 17.8115 4.30464
LeftFoot  -4.52012 0.00701344 -0.259143
LeftToes  1.39127e-010 -3.60802e-011 -7.31315e-011
54
root  7.43011 39.8348 -85.193 -1.9172 -11.1514 1.05803
RightUpLeg  -3.42306 -2.00567 -0.18577
RightLeg  8.54161 -0.365089 -1.26967
RightFoot  -4.19735 -0.0442708 0.645558
RightToes  5.82077e-011 -3.18055e-015 -2.98177e-016
Spine  1.07682 1.25947 0.607083
Spine1  9.31233 1.29499 0.652617
HEad  -10.7668 3.18809 -0.977199
LeftShoulder1  -3.88251e-019 9.70628e-020 -3.87848e-018
LeftArm  -22.3669 51.6811 -71.8868
LeftForeArm  7.99935 -11.8343 -5.02781
LeftHand  -0.500663 -0.234 11.2256
RightShoulder  8.18665 10.9228 37.9156
RightArm  8.30173 -39.6757 20.4546
RightForeArm  13.275 15.1567 -4.73806
RightHand  -1.30469 2.54887 -18.7427
LeftUpLeg  -1.92325 -3.39252 -6.05853
LeftLeg  8.22435 17.8792 5.3284
LeftFoot  -5.79295 0.0405211 -0.885536
LeftToes  1.39127e-010 -3.60802e-011 -7.31315e-011
55
root  7.59057 39.6822 -85.2542 -2.21683 -12.0124 1.48955
RightUpLeg  -5.34302 -3.99196 -0.614952
RightLeg  11.9407 2.82916 -2.29772
RightFoot  -5.6949 -0.0573984 1.05542
RightToes  5.82077e-011 -3.18055e-015 -2.98177e-016
Spine  2.82799 1.45899 1.30936
Spine1  8.23856 1.88719 -0.991419
HEad  -10.128 3.05539 -0.91238
LeftShoulder1  -3.88251e-019 9.70628e-020 -3.87848e-018
LeftArm  -22.4967 51.0694 -72.194
LeftForeArm  7.74164 -11.3777 -5.16658
LeftHand  -0.524255 -0.306511 11.5857
RightShoulder  8.12325 10.8992 37.66
RightArm  7.81033 -39.7681 21.079
RightForeArm  13.7076 15.0517 -4.75983
RightHand  -1.35672 2.79374 -18.9151
LeftUpLeg  -2.77836 -2.58981 -6.65646
LeftLeg  10.4662 17.8958 6.44089
LeftFoot  -7.18942 0.0630184 -1.59758
LeftToes  1.39127e-010 -3.60802e-011 -7.31315e-011
56
root  7.71244 39.4837 -85.3215 -2.43052 -13.8924 2.20538
RightUpLeg  -8.11061 -5.4019 -0.790969
RightLeg  15.985 6.25318 -3.74787
RightFoot  -7.06796 -0.0623967 1.48698
RightToes  5.82077e-011 -3.18055e-015 -2.98177e-016
Spine  4.59714 2.16873 1.49789
Spine1  7.06805 2.95864 -2.68472
HEad  -9.48395 2.81052 -1.09494
LeftShoulder1  -3.88251e-019 9.70628e-020 -3.87848e-018
LeftArm  -22.3581 50.5382 -72.3697
LeftForeArm  7.75993 -11.2727 -5.26555
LeftHand  -0.60393 -1.1245 11.6117
RightShoulder  8.05427 10.8796 37.3674
RightArm  7.39729 -39.6467 21.5843
RightForeArm  14.1423 14.9244 -4.71942
RightHand  -1.40622 3.08554 -18.941
LeftUpLeg  -3.85394 -0.677901 -7.30048
LeftLeg  12.9117 17.7104 7.45965
LeftFoot  -8.49476 0.0616448 -2.102
LeftToes  1.39127e-010 -3.60802e-011 -7.31315e-011
